<svg id="Layer_3" data-name="Layer 3" xmlns="http://www.w3.org/2000/svg" xmlns:xlink="http://www.w3.org/1999/xlink" viewBox="0 0 391.23 377.14"><defs><style>.cls-1{fill:url(#White_Black);}.cls-2{fill:url(#White_Black-2);}.cls-3{fill:url(#White_Black-3);}.cls-4{fill:url(#White_Black-4);}.cls-5{mask:url(#mask);}.cls-6{mask:url(#mask-2);}.cls-7{mask:url(#mask-3);}.cls-8{mask:url(#mask-4);}.cls-9{fill:#35312c;}.cls-10{fill:#4b4640;}</style><linearGradient id="White_Black" x1="-6921.38" y1="-1004.21" x2="-7072.12" y2="-1105.48" gradientTransform="translate(1060.92 -631.84) rotate(-180)" gradientUnits="userSpaceOnUse"><stop offset="0" stop-color="#fff"/><stop offset="1" stop-color="#231f20"/></linearGradient><linearGradient id="White_Black-2" x1="6231.2" y1="-3260.11" x2="5745.37" y2="-3586.5" gradientTransform="translate(-1739.57 -4986.49) rotate(90)" xlink:href="#White_Black"/><linearGradient id="White_Black-3" x1="9150.3" y1="2727.68" x2="8664.48" y2="2401.29" gradientTransform="translate(-6984.09 -2177.84)" xlink:href="#White_Black"/><linearGradient id="White_Black-4" x1="-2152.97" y1="-1196.1" x2="-2376.69" y2="-1346.41" gradientTransform="matrix(-1, 0, 0, -1, 1126.28, -50.63)" xlink:href="#White_Black"/><mask id="mask" x="7726.01" y="195.48" width="168.2" height="109.01" maskUnits="userSpaceOnUse"><g transform="translate(-304.38 -211.43)"><rect class="cls-1" x="8035.36" y="416.37" width="158.25" height="90.1" transform="translate(5.37 1009.2) rotate(-7.12)"/></g></mask><mask id="mask-2" x="1326.53" y="336.36" width="351.34" height="542.08" maskUnits="userSpaceOnUse"><g transform="translate(-304.38 -211.43)"><rect class="cls-2" x="1661.4" y="563.81" width="290.37" height="510.03" transform="translate(-87.55 230.21) rotate(-7.12)"/></g></mask><mask id="mask-3" x="1164.73" y="-123.17" width="542.08" height="351.34" maskUnits="userSpaceOnUse"><g transform="translate(-304.38 -211.43)"><rect class="cls-3" x="1485.14" y="118.74" width="510.03" height="290.37" transform="translate(-19.29 217.7) rotate(-7.12)"/></g></mask><mask id="mask-4" x="3046.2" y="985.05" width="249.63" height="161.8" maskUnits="userSpaceOnUse"><g transform="translate(-304.38 -211.43)"><rect class="cls-4" x="3357.96" y="1210.52" width="234.87" height="133.72" transform="translate(-131.52 440.58) rotate(-7.12)"/></g></mask></defs><polygon class="cls-9" points="391.23 377.14 231.79 69.74 195.62 0 195.62 139.48 318.89 377.14 391.23 377.14"/><polygon class="cls-10" points="159.44 69.74 0 377.14 72.34 377.14 247.59 291.84 110.47 303.64 195.62 139.48 195.62 0 159.44 69.74"/></svg>