<svg width="2290" height="390" viewBox="0 0 2290 390" fill="none" xmlns="http://www.w3.org/2000/svg">
<g clip-path="url(#clip0_29_20)">
<path d="M217.317 2.90237C171.985 2.84351 128.211 19.93 94.3086 50.9166H340.32C306.419 19.9318 262.647 2.84547 217.317 2.90237Z" fill="#084896" stroke="black"/>
<path d="M217.317 385.255C261.156 385.319 303.591 369.343 337.051 340.178H97.583C131.044 369.342 173.478 385.317 217.317 385.255Z" fill="#FFB25B" stroke="black"/>
<path d="M363.5 95.7447H397.258C392.801 87.9283 387.813 80.4461 382.332 73.3539H91.6923C86.2088 80.4446 81.2207 87.927 76.7657 95.7447H43.0077C38.7945 103.128 35.0708 110.797 31.8619 118.697H374.64C371.433 110.797 367.712 103.129 363.5 95.7447Z" fill="#0185EF" stroke="black"/>
<path d="M378.945 273.782H33.0096C36.3453 281.645 40.1834 289.273 44.4986 296.613H71.9438C76.7635 304.82 82.1664 312.649 88.1083 320.035H378.736C384.675 312.648 390.076 304.819 394.895 296.613H367.456C371.773 289.274 375.611 281.647 378.945 273.782Z" fill="#E6C378" stroke="black"/>
<path d="M436.097 175.071C435.309 163.585 434.13 152.296 432.558 141.204H48.2177C46.6536 152.281 45.4739 163.57 44.6787 175.071H24.4239C22.7241 190.571 22.951 206.231 25.0991 221.672H0.905884C1.73858 231.235 2.84134 240.656 4.21417 249.937H393.297C394.666 240.668 395.767 231.246 396.6 221.672H414.391C416.541 206.231 416.766 190.571 415.06 175.071H436.097Z" fill="#FEF6A0" stroke="black"/>
<path d="M309.454 24.1809C281.274 8.07635 249.529 -0.251583 217.3 0.00578939C185.093 0.165238 153.435 8.60237 125.197 24.5517C104.076 36.5553 93.324 50.3953 92.8345 50.9167H101.145C101.257 50.8008 107.514 41.242 127.915 29.6439C155.333 14.1649 186.07 5.97692 217.34 5.82219C248.519 5.56851 279.234 13.6019 306.517 29.1457C326.974 40.8596 335.898 50.8008 336.01 50.9167H344.388C343.921 50.3837 330.581 36.3119 309.454 24.1809Z" fill="black"/>
<path d="M306.415 361.486C279.038 376.732 248.356 384.589 217.233 384.323C186.023 384.191 155.32 376.183 127.813 360.999C107.412 349.65 101.15 340.288 101.043 340.178H92.7612C93.2338 340.665 104.014 354.215 125.118 365.964C153.444 381.599 185.06 389.849 217.199 389.994C249.374 390.264 281.089 382.122 309.375 366.329C330.502 354.453 343.836 340.676 344.309 340.178H335.926C335.819 340.294 326.867 350.021 306.415 361.486Z" fill="black"/>
<path d="M44.3749 98.3517L80.2146 98.3111L80.9067 96.8454C85.2333 87.7037 95.777 73.4813 95.8783 73.3539H88.4741C88.0577 73.8637 80.6703 83.6658 75.8036 93.1378H41.6461L40.8978 94.2964C40.5434 94.8757 31.2881 108.6 28.5199 118.709H34.5232C36.6162 111.045 42.3213 101.735 44.3749 98.3517Z" fill="black"/>
<path d="M28.126 221.035C24.7502 203.812 26.3424 185.117 27.1301 178.258H48.0151L47.7619 174.828C47.053 165.188 51.284 141.436 51.3233 141.227H46.3947C46.2315 142.114 43.0189 161.961 42.912 173.362H24.6433L24.2326 176.05C24.0806 177.006 20.8568 198.534 24.2326 219.963H0.765137L0.697621 223.068C0.697621 223.543 0.624479 232.778 4.23096 249.96H7.34232C5.58841 241.707 4.49511 233.319 4.07342 224.881H28.8799L28.126 221.035Z" fill="black"/>
<path d="M438.994 172.088C438.994 171.613 438.646 158.381 435.056 141.204H431.303C433.672 152.478 435.461 165.889 435.63 170.275H410.812L411.566 174.098C414.942 191.321 413.35 209.912 412.562 216.754H392.352L392.605 220.177C393.314 229.817 389.106 249.723 389.061 249.937H393.297C393.455 249.051 396.673 233.067 396.78 221.672H415.049L415.46 218.984C415.611 218.022 418.835 196.622 415.46 175.199H438.944L438.994 172.088Z" fill="black"/>
<path d="M73.6318 293.427H46.0628C40.2339 285.148 36.3742 273.915 36.3348 273.782H30.6354C30.8379 274.361 35.5978 288.265 42.5238 297.355L43.4522 298.571H70.7117C73.463 302.939 81.036 314.792 85.689 320.006H92.2718C87.09 314.155 74.6502 295.043 74.5433 294.869L73.6318 293.427Z" fill="black"/>
<path d="M377.138 118.697C374.488 111.473 369.875 102.552 367.405 98.0388H401.084L399.222 94.5976C394.428 85.7166 385.584 73.8926 385.156 73.3307H379.58C379.665 73.4466 388.284 85.1025 393.303 93.4042H359.545L361.593 96.9207C361.666 97.0424 368.553 108.588 372.283 118.697H377.138Z" fill="black"/>
<path d="M381.448 273.782H376.514C376.458 273.927 371.349 287.107 365.633 295.258L363.056 298.931H390.839C387.705 304.017 380.813 314.949 376.21 320.035H381.775C388.639 312.504 396.454 298.473 396.842 297.812L398.912 294.296H371.642C376.688 285.844 381.246 274.303 381.448 273.782Z" fill="black"/>
</g>
<path d="M492.624 223.988H508.24C512.251 223.988 515.963 223.305 519.376 221.94C522.875 220.489 525.904 218.484 528.464 215.924C531.109 213.364 533.115 210.377 534.48 206.964C535.931 203.551 536.656 199.839 536.656 195.828C536.656 191.817 535.931 188.105 534.48 184.692C533.029 181.193 531.024 178.164 528.464 175.604C525.904 173.044 522.875 171.039 519.376 169.588C515.963 168.137 512.251 167.412 508.24 167.412H492.624V223.988ZM474.064 240.5V150.9H508.496C515.237 150.9 521.467 152.052 527.184 154.356C532.901 156.575 537.893 159.732 542.16 163.828C546.427 167.924 549.755 172.703 552.144 178.164C554.619 183.625 555.856 189.513 555.856 195.828C555.856 202.228 554.661 208.116 552.272 213.492C549.883 218.868 546.512 223.604 542.16 227.7C537.893 231.711 532.901 234.868 527.184 237.172C521.467 239.391 515.237 240.5 508.496 240.5H474.064ZM560.884 240.5V150.9H629.748V167.028H579.444V187.508H612.596V203.124H579.444V224.372H630.26V240.5H560.884ZM667.704 241.78C660.451 241.78 653.368 240.457 646.456 237.812C639.544 235.081 633.4 231.241 628.024 226.292L638.648 212.98C643.853 217.588 648.845 220.916 653.624 222.964C658.488 225.012 663.608 226.036 668.984 226.036C672.739 226.036 675.981 225.609 678.712 224.756C681.443 223.817 683.533 222.495 684.984 220.788C686.52 219.081 687.288 217.076 687.288 214.772C687.288 211.7 686.179 209.353 683.96 207.732C681.741 206.025 677.944 204.703 672.568 203.764L654.776 200.692C647.181 199.412 641.379 196.724 637.368 192.628C633.443 188.532 631.48 183.241 631.48 176.756C631.48 171.209 632.888 166.388 635.704 162.292C638.605 158.196 642.659 155.081 647.864 152.948C653.155 150.729 659.427 149.62 666.68 149.62C673.251 149.62 679.779 150.729 686.264 152.948C692.835 155.167 698.637 158.239 703.672 162.164L693.688 175.988C684.301 168.82 674.872 165.236 665.4 165.236C662.072 165.236 659.171 165.663 656.696 166.516C654.221 167.369 652.301 168.564 650.936 170.1C649.656 171.551 649.016 173.3 649.016 175.348C649.016 178.079 649.997 180.212 651.96 181.748C653.923 183.199 657.208 184.308 661.816 185.076L678.712 187.892C687.672 189.343 694.371 192.201 698.808 196.468C703.245 200.649 705.464 206.196 705.464 213.108C705.464 218.911 703.928 223.988 700.856 228.34C697.784 232.607 693.389 235.935 687.672 238.324C682.04 240.628 675.384 241.78 667.704 241.78ZM708.774 240.5V150.9H727.334V240.5H708.774ZM780.001 241.908C773.345 241.908 767.158 240.756 761.441 238.452C755.724 236.063 750.689 232.777 746.337 228.596C741.985 224.329 738.572 219.423 736.097 213.876C733.708 208.244 732.513 202.185 732.513 195.7C732.513 189.215 733.708 183.199 736.097 177.652C738.572 172.02 741.942 167.113 746.209 162.932C750.476 158.665 755.468 155.38 761.185 153.076C766.988 150.687 773.174 149.492 779.745 149.492C787.169 149.492 794.166 150.985 800.737 153.972C807.308 156.873 812.726 160.969 816.993 166.26L804.065 178.164C800.993 174.324 797.366 171.423 793.185 169.46C789.004 167.497 784.524 166.516 779.745 166.516C775.734 166.516 772.022 167.284 768.609 168.82C765.196 170.271 762.209 172.319 759.649 174.964C757.089 177.524 755.084 180.596 753.633 184.18C752.268 187.679 751.585 191.519 751.585 195.7C751.585 199.881 752.31 203.764 753.761 207.348C755.212 210.932 757.217 214.047 759.777 216.692C762.422 219.252 765.452 221.3 768.865 222.836C772.364 224.287 776.161 225.012 780.257 225.012C784.524 225.012 788.364 224.244 791.777 222.708C795.19 221.087 798.049 218.868 800.353 216.052C802.742 213.151 804.321 209.908 805.089 206.324H778.593V190.196H824.929V195.828C824.929 202.484 823.777 208.628 821.473 214.26C819.254 219.807 816.14 224.671 812.129 228.852C808.118 232.948 803.382 236.148 797.921 238.452C792.46 240.756 786.486 241.908 780.001 241.908ZM829.914 240.5V150.9H847.578L892.122 208.756V150.9H909.53V240.5H893.146L847.45 180.596V240.5H829.914ZM918.109 240.5V150.9H986.973V167.028H936.669V187.508H969.821V203.124H936.669V224.372H987.485V240.5H918.109ZM1011.49 223.988H1027.1C1031.12 223.988 1034.83 223.305 1038.24 221.94C1041.74 220.489 1044.77 218.484 1047.33 215.924C1049.97 213.364 1051.98 210.377 1053.34 206.964C1054.8 203.551 1055.52 199.839 1055.52 195.828C1055.52 191.817 1054.8 188.105 1053.34 184.692C1051.89 181.193 1049.89 178.164 1047.33 175.604C1044.77 173.044 1041.74 171.039 1038.24 169.588C1034.83 168.137 1031.12 167.412 1027.1 167.412H1011.49V223.988ZM992.929 240.5V150.9H1027.36C1034.1 150.9 1040.33 152.052 1046.05 154.356C1051.77 156.575 1056.76 159.732 1061.02 163.828C1065.29 167.924 1068.62 172.703 1071.01 178.164C1073.48 183.625 1074.72 189.513 1074.72 195.828C1074.72 202.228 1073.53 208.116 1071.14 213.492C1068.75 218.868 1065.38 223.604 1061.02 227.7C1056.76 231.711 1051.77 234.868 1046.05 237.172C1040.33 239.391 1034.1 240.5 1027.36 240.5H992.929ZM1097.82 240.5V150.9H1139.93C1145.99 150.9 1151.28 151.924 1155.8 153.972C1160.33 156.02 1163.87 158.921 1166.43 162.676C1168.99 166.345 1170.27 170.612 1170.27 175.476C1170.27 179.401 1169.24 183.028 1167.2 186.356C1165.23 189.599 1162.54 192.244 1159.13 194.292C1163.48 196.34 1166.94 199.113 1169.5 202.612C1172.06 206.111 1173.34 210.079 1173.34 214.516C1173.34 219.636 1172.02 224.159 1169.37 228.084C1166.81 232.009 1163.14 235.081 1158.36 237.3C1153.67 239.433 1148.21 240.5 1141.98 240.5H1097.82ZM1116.38 187.508H1138.78C1142.79 187.508 1145.95 186.569 1148.25 184.692C1150.64 182.729 1151.84 180.127 1151.84 176.884C1151.84 173.641 1150.64 171.081 1148.25 169.204C1145.95 167.241 1142.79 166.26 1138.78 166.26H1116.38V187.508ZM1116.38 225.14H1140.57C1144.84 225.14 1148.25 224.116 1150.81 222.068C1153.37 219.935 1154.65 217.119 1154.65 213.62C1154.65 210.036 1153.37 207.22 1150.81 205.172C1148.25 203.039 1144.84 201.972 1140.57 201.972H1116.38V225.14ZM1200.67 240.5V206.196L1164.06 150.9H1185.43L1210.52 189.812L1235.74 150.9H1255.96L1219.23 206.324V240.5H1200.67ZM1292.21 223.988H1307.83C1311.84 223.988 1315.55 223.305 1318.97 221.94C1322.46 220.489 1325.49 218.484 1328.05 215.924C1330.7 213.364 1332.7 210.377 1334.07 206.964C1335.52 203.551 1336.25 199.839 1336.25 195.828C1336.25 191.817 1335.52 188.105 1334.07 184.692C1332.62 181.193 1330.61 178.164 1328.05 175.604C1325.49 173.044 1322.46 171.039 1318.97 169.588C1315.55 168.137 1311.84 167.412 1307.83 167.412H1292.21V223.988ZM1273.65 240.5V150.9H1308.09C1314.83 150.9 1321.06 152.052 1326.77 154.356C1332.49 156.575 1337.48 159.732 1341.75 163.828C1346.02 167.924 1349.34 172.703 1351.73 178.164C1354.21 183.625 1355.45 189.513 1355.45 195.828C1355.45 202.228 1354.25 208.116 1351.86 213.492C1349.47 218.868 1346.1 223.604 1341.75 227.7C1337.48 231.711 1332.49 234.868 1326.77 237.172C1321.06 239.391 1314.83 240.5 1308.09 240.5H1273.65ZM1360.47 240.5V150.9H1379.03V240.5H1360.47ZM1431.7 241.908C1425.04 241.908 1418.86 240.756 1413.14 238.452C1407.42 236.063 1402.39 232.777 1398.04 228.596C1393.68 224.329 1390.27 219.423 1387.8 213.876C1385.41 208.244 1384.21 202.185 1384.21 195.7C1384.21 189.215 1385.41 183.199 1387.8 177.652C1390.27 172.02 1393.64 167.113 1397.91 162.932C1402.18 158.665 1407.17 155.38 1412.88 153.076C1418.69 150.687 1424.87 149.492 1431.44 149.492C1438.87 149.492 1445.87 150.985 1452.44 153.972C1459.01 156.873 1464.43 160.969 1468.69 166.26L1455.76 178.164C1452.69 174.324 1449.07 171.423 1444.88 169.46C1440.7 167.497 1436.22 166.516 1431.44 166.516C1427.43 166.516 1423.72 167.284 1420.31 168.82C1416.9 170.271 1413.91 172.319 1411.35 174.964C1408.79 177.524 1406.78 180.596 1405.33 184.18C1403.97 187.679 1403.28 191.519 1403.28 195.7C1403.28 199.881 1404.01 203.764 1405.46 207.348C1406.91 210.932 1408.92 214.047 1411.48 216.692C1414.12 219.252 1417.15 221.3 1420.56 222.836C1424.06 224.287 1427.86 225.012 1431.96 225.012C1436.22 225.012 1440.06 224.244 1443.48 222.708C1446.89 221.087 1449.75 218.868 1452.05 216.052C1454.44 213.151 1456.02 209.908 1456.79 206.324H1430.29V190.196H1476.63V195.828C1476.63 202.484 1475.48 208.628 1473.17 214.26C1470.95 219.807 1467.84 224.671 1463.83 228.852C1459.82 232.948 1455.08 236.148 1449.62 238.452C1444.16 240.756 1438.19 241.908 1431.7 241.908ZM1481.61 240.5V150.9H1500.17V240.5H1481.61ZM1533.26 240.5V167.284H1503.05V150.9H1581.9V167.284H1551.82V240.5H1533.26ZM1559.68 240.5L1596.54 150.9H1617.92L1654.4 240.5H1634.3L1625.21 216.948H1588.22L1579.01 240.5H1559.68ZM1593.98 202.1H1619.58L1606.78 169.076L1593.98 202.1ZM1654.32 240.5V150.9H1672.88V224.116H1721.91V240.5H1654.32ZM1777.09 241.78C1769.84 241.78 1762.75 240.457 1755.84 237.812C1748.93 235.081 1742.79 231.241 1737.41 226.292L1748.03 212.98C1753.24 217.588 1758.23 220.916 1763.01 222.964C1767.87 225.012 1772.99 226.036 1778.37 226.036C1782.12 226.036 1785.37 225.609 1788.1 224.756C1790.83 223.817 1792.92 222.495 1794.37 220.788C1795.91 219.081 1796.67 217.076 1796.67 214.772C1796.67 211.7 1795.56 209.353 1793.35 207.732C1791.13 206.025 1787.33 204.703 1781.95 203.764L1764.16 200.692C1756.57 199.412 1750.76 196.724 1746.75 192.628C1742.83 188.532 1740.87 183.241 1740.87 176.756C1740.87 171.209 1742.27 166.388 1745.09 162.292C1747.99 158.196 1752.04 155.081 1757.25 152.948C1762.54 150.729 1768.81 149.62 1776.07 149.62C1782.64 149.62 1789.16 150.729 1795.65 152.948C1802.22 155.167 1808.02 158.239 1813.06 162.164L1803.07 175.988C1793.69 168.82 1784.26 165.236 1774.79 165.236C1771.46 165.236 1768.56 165.663 1766.08 166.516C1763.61 167.369 1761.69 168.564 1760.32 170.1C1759.04 171.551 1758.4 173.3 1758.4 175.348C1758.4 178.079 1759.38 180.212 1761.35 181.748C1763.31 183.199 1766.59 184.308 1771.2 185.076L1788.1 187.892C1797.06 189.343 1803.76 192.201 1808.19 196.468C1812.63 200.649 1814.85 206.196 1814.85 213.108C1814.85 218.911 1813.31 223.988 1810.24 228.34C1807.17 232.607 1802.77 235.935 1797.06 238.324C1791.43 240.628 1784.77 241.78 1777.09 241.78ZM1856.43 241.78C1848.32 241.78 1841.28 240.159 1835.31 236.916C1829.42 233.673 1824.86 229.065 1821.61 223.092C1818.37 217.033 1816.75 209.951 1816.75 201.844V150.9H1835.31V201.844C1835.31 206.452 1836.16 210.505 1837.87 214.004C1839.66 217.417 1842.14 220.063 1845.29 221.94C1848.54 223.732 1852.29 224.628 1856.56 224.628C1860.83 224.628 1864.54 223.732 1867.69 221.94C1870.85 220.063 1873.28 217.417 1874.99 214.004C1876.78 210.505 1877.68 206.452 1877.68 201.844V150.9H1896.11V201.844C1896.11 209.865 1894.49 216.905 1891.25 222.964C1888 228.937 1883.4 233.588 1877.42 236.916C1871.53 240.159 1864.54 241.78 1856.43 241.78ZM1903.23 240.5V150.9H1920.89L1965.44 208.756V150.9H1982.85V240.5H1966.46L1920.77 180.596V240.5H1903.23ZM2023.42 241.78C2016.17 241.78 2009.09 240.457 2002.18 237.812C1995.26 235.081 1989.12 231.241 1983.74 226.292L1994.37 212.98C1999.57 217.588 2004.57 220.916 2009.34 222.964C2014.21 225.012 2019.33 226.036 2024.7 226.036C2028.46 226.036 2031.7 225.609 2034.43 224.756C2037.16 223.817 2039.25 222.495 2040.7 220.788C2042.24 219.081 2043.01 217.076 2043.01 214.772C2043.01 211.7 2041.9 209.353 2039.68 207.732C2037.46 206.025 2033.66 204.703 2028.29 203.764L2010.5 200.692C2002.9 199.412 1997.1 196.724 1993.09 192.628C1989.16 188.532 1987.2 183.241 1987.2 176.756C1987.2 171.209 1988.61 166.388 1991.42 162.292C1994.33 158.196 1998.38 155.081 2003.58 152.948C2008.87 150.729 2015.15 149.62 2022.4 149.62C2028.97 149.62 2035.5 150.729 2041.98 152.948C2048.55 155.167 2054.36 158.239 2059.39 162.164L2049.41 175.988C2040.02 168.82 2030.59 165.236 2021.12 165.236C2017.79 165.236 2014.89 165.663 2012.42 166.516C2009.94 167.369 2008.02 168.564 2006.66 170.1C2005.38 171.551 2004.74 173.3 2004.74 175.348C2004.74 178.079 2005.72 180.212 2007.68 181.748C2009.64 183.199 2012.93 184.308 2017.54 185.076L2034.43 187.892C2043.39 189.343 2050.09 192.201 2054.53 196.468C2058.97 200.649 2061.18 206.196 2061.18 213.108C2061.18 218.911 2059.65 223.988 2056.58 228.34C2053.5 232.607 2049.11 235.935 2043.39 238.324C2037.76 240.628 2031.1 241.78 2023.42 241.78ZM2064.49 240.5V150.9H2133.36V167.028H2083.05V187.508H2116.21V203.124H2083.05V224.372H2133.87V240.5H2064.49ZM2163.76 240.5V167.284H2133.55V150.9H2212.4V167.284H2182.32V240.5H2163.76ZM2248.38 241.78C2241.13 241.78 2234.05 240.457 2227.14 237.812C2220.22 235.081 2214.08 231.241 2208.7 226.292L2219.33 212.98C2224.53 217.588 2229.53 220.916 2234.3 222.964C2239.17 225.012 2244.29 226.036 2249.66 226.036C2253.42 226.036 2256.66 225.609 2259.39 224.756C2262.12 223.817 2264.21 222.495 2265.66 220.788C2267.2 219.081 2267.97 217.076 2267.97 214.772C2267.97 211.7 2266.86 209.353 2264.64 207.732C2262.42 206.025 2258.62 204.703 2253.25 203.764L2235.46 200.692C2227.86 199.412 2222.06 196.724 2218.05 192.628C2214.12 188.532 2212.16 183.241 2212.16 176.756C2212.16 171.209 2213.57 166.388 2216.38 162.292C2219.29 158.196 2223.34 155.081 2228.54 152.948C2233.83 150.729 2240.11 149.62 2247.36 149.62C2253.93 149.62 2260.46 150.729 2266.94 152.948C2273.51 155.167 2279.32 158.239 2284.35 162.164L2274.37 175.988C2264.98 168.82 2255.55 165.236 2246.08 165.236C2242.75 165.236 2239.85 165.663 2237.38 166.516C2234.9 167.369 2232.98 168.564 2231.62 170.1C2230.34 171.551 2229.7 173.3 2229.7 175.348C2229.7 178.079 2230.68 180.212 2232.64 181.748C2234.6 183.199 2237.89 184.308 2242.5 185.076L2259.39 187.892C2268.35 189.343 2275.05 192.201 2279.49 196.468C2283.93 200.649 2286.14 206.196 2286.14 213.108C2286.14 218.911 2284.61 223.988 2281.54 228.34C2278.46 232.607 2274.07 235.935 2268.35 238.324C2262.72 240.628 2256.06 241.78 2248.38 241.78Z" fill="url(#paint0_linear_29_20)"/>
<defs>
<linearGradient id="paint0_linear_29_20" x1="466" y1="119.991" x2="2290" y2="230.509" gradientUnits="userSpaceOnUse">
<stop stop-color="#8DB7EB"/>
<stop offset="1" stop-color="#FFB25B"/>
</linearGradient>
<clipPath id="clip0_29_20">
<rect width="439" height="390" fill="white"/>
</clipPath>
</defs>
</svg>
